 <svg version="1.0" xmlns="http://www.w3.org/2000/svg"  width="212.000000pt" height="44.000000pt" viewBox="0 0 212.000000 44.000000"  preserveAspectRatio="xMidYMid meet">  <g transform="translate(0.000000,44.000000) scale(0.100000,-0.100000)" fill="#000000" stroke="none"> <path d="M1060 215 c0 -83 4 -135 10 -135 6 0 10 52 10 135 0 83 -4 135 -10 135 -6 0 -10 -52 -10 -135z"/> <path d="M844 278 c-10 -29 -20 -56 -22 -59 -2 -4 7 -5 19 -2 19 5 20 3 14 -18 -4 -13 -14 -37 -22 -52 -8 -16 -12 -31 -9 -35 7 -7 4 -11 54 65 48 70 50 77 22 70 -25 -6 -25 -5 0 43 l20 40 -28 0 c-25 0 -30 -6 -48 -52z"/> <path d="M330 244 c-19 -18 -38 -31 -42 -28 -4 3 -18 -1 -30 -8 -13 -7 -27 -11 -32 -10 -15 5 -46 -9 -46 -20 0 -7 5 -7 14 1 7 6 21 9 30 5 9 -3 23 -1 31 6 8 7 21 10 29 7 8 -3 22 3 32 15 35 38 52 41 69 11 9 -16 14 -20 11 -10 -3 9 -3 17 1 17 3 0 12 -8 19 -17 10 -13 13 -14 14 -4 0 9 4 10 13 4 16 -13 109 -44 115 -39 7 8 -56 36 -80 36 -22 1 -22 1 -4 15 23 18 62 20 72 4 3 -6 15 -9 25 -6 11 3 19 1 19 -3 0 -4 16 -18 36 -29 22 -13 34 -16 32 -9 -3 7 -15 18 -28 25 -12 6 -25 15 -29 20 -13 17 -67 39 -81 32 -74 -36 -76 -36 -135 4 -18 13 -24 11 -55 -19z"/> <path d="M1579 256 c-8 -9 2 -66 12 -66 5 0 6 8 2 18 -6 16 -5 16 14 0 11 -10 23 -18 26 -18 11 0 8 58 -3 65 -5 3 -10 -4 -10 -16 l0 -21 -18 22 c-9 12 -20 19 -23 16z"/> <path d="M1778 248 c-3 -7 -18 -11 -36 -10 -28 2 -32 -1 -32 -23 0 -31 15 -33 24 -2 l7 22 9 -22 c5 -13 18 -23 30 -23 16 0 20 6 20 35 0 34 -14 48 -22 23z m7 -27 c3 -5 1 -12 -5 -16 -5 -3 -10 1 -10 9 0 18 6 21 15 7z"/> <path d="M1298 243 c6 -2 12 -16 12 -29 0 -14 6 -24 14 -24 9 0 12 8 9 24 -4 17 0 25 14 29 10 3 0 5 -22 5 -22 0 -34 -2 -27 -5z"/> <path d="M1364 226 c-8 -21 3 -36 27 -36 15 0 20 6 17 22 -4 27 -35 37 -44 14z m30 -11 c3 -8 1 -15 -4 -15 -6 0 -10 7 -10 15 0 8 2 15 4 15 2 0 6 -7 10 -15z"/> <path d="M1429 238 c-12 -42 -9 -48 31 -48 29 0 40 4 40 15 0 8 4 15 10 15 5 0 7 -7 4 -15 -4 -8 -1 -15 5 -15 6 0 11 7 11 15 0 8 5 15 11 15 6 0 9 -7 5 -15 -3 -8 -1 -15 4 -15 6 0 10 11 10 25 0 22 -4 25 -39 25 -33 0 -40 -4 -44 -22 l-4 -23 -2 23 c-1 15 -7 22 -21 22 -11 0 -20 -1 -21 -2z"/> <path d="M1654 225 c-4 -9 -2 -21 4 -27 15 -15 44 -1 40 19 -4 23 -36 29 -44 8z m30 -16 c-3 -5 -10 -7 -15 -3 -5 3 -7 10 -3 15 3 5 10 7 15 3 5 -3 7 -10 3 -15z"/> <path d="M1814 226 c-8 -21 3 -36 27 -36 15 0 20 6 17 22 -4 27 -35 37 -44 14z m30 -11 c3 -8 1 -15 -4 -15 -6 0 -10 7 -10 15 0 8 2 15 4 15 2 0 6 -7 10 -15z"/> <path d="M1870 215 c0 -14 5 -25 10 -25 6 0 10 7 10 15 0 8 5 15 11 15 6 0 9 -7 5 -15 -3 -8 -1 -15 4 -15 6 0 10 11 10 25 0 20 -5 25 -25 25 -20 0 -25 -5 -25 -25z"/> <path d="M713 197 c0 -8 6 -14 14 -14 7 0 13 6 13 14 0 7 -6 13 -13 13 -8 0 -14 -6 -14 -13z"/> </g> </svg> 